PathFileType	4	(X/Y/Z)	Walk3.trc
DataRate	CameraRate	NumFrames	NumMarkers	Units	OrigDataRate	OrigDataStartFrame	OrigNumFrames
200.000000	200.000000	6	56	mm	200.000000	458	604
Frame#	Times		RFA1		RUA1		RACR1		LFA1		RBHD		RASI		C7		RTH2		RTH3		RElbow		LElbowM		RTB1		RTB3		RWRU		RTH4		RLFC		RTH1		LACR1		RTB2		RMT1		RCAR		RMT5		RTB4		LElbow		LTH2		LTH3		LTH4		LWRU		LPSI		RPSI		LTB1		LLFC		T10		RWRR		LTH1		LBHD		LWRR		LTB3		LTB2		LFHD		LMT1		RBack		LCAL		LTB4		LLMAL		CLAV		LMMAL		RElbowM		LToe		LMT5		RMMAL		RLMAL		LCAR		LUA1		RCAL		RToe
			X1	Y1	Z1	X2	Y2	Z2	X3	Y3	Z3	X4	Y4	Z4	X5	Y5	Z5	X6	Y6	Z6	X7	Y7	Z7	X8	Y8	Z8	X9	Y9	Z9	X10	Y10	Z10	X11	Y11	Z11	X12	Y12	Z12	X13	Y13	Z13	X14	Y14	Z14	X15	Y15	Z15	X16	Y16	Z16	X17	Y17	Z17	X18	Y18	Z18	X19	Y19	Z19	X20	Y20	Z20	X21	Y21	Z21	X22	Y22	Z22	X23	Y23	Z23	X24	Y24	Z24	X25	Y25	Z25	X26	Y26	Z26	X27	Y27	Z27	X28	Y28	Z28	X29	Y29	Z29	X30	Y30	Z30	X31	Y31	Z31	X32	Y32	Z32	X33	Y33	Z33	X34	Y34	Z34	X35	Y35	Z35	X36	Y36	Z36	X37	Y37	Z37	X38	Y38	Z38	X39	Y39	Z39	X40	Y40	Z40	X41	Y41	Z41	X42	Y42	Z42	X43	Y43	Z43	X44	Y44	Z44	X45	Y45	Z45	X46	Y46	Z46	X47	Y47	Z47	X48	Y48	Z48	X49	Y49	Z49	X50	Y50	Z50	X51	Y51	Z51	X52	Y52	Z52	X53	Y53	Z53	X54	Y54	Z54	X55	Y55	Z55	X56	Y56	Z56

458	2.29	448.66	980.57	552.38	417.28	1239.7	500.12	462.47	1423.6	406.71	385.98	985.31	-51.229	419.5	1604	316.44	473.33	954.14	396.47	394.64	1462.7	257.21	542.37	685.38	419.79	507.9	570.27	425.91	376.48	1115.1	538	304.78	1128.9	67.631	517.84	379.25	332.05	382.94	241.97	330.66	472.32	854.13	540.92	475.4	658.18	435.25	524.5	476.37	417.27	443.29	748.32	438.56	430.66	1442.8	81.118	437.74	318.04	405.17	356.79	75.362	289.82	529.79	815.95	543.89	333.8	83.856	370.68	452.98	310.94	333.33	321.62	1126.6	-9.1018	522.62	674.25	91.757	457.88	579.14	73.952	452.29	667.75	58.24	354.7	868.82	-45.938	308.78	986.65	182.03	299.67	982.42	286.57	493.08	371.6	150.57	451.91	461.08	91.754	298.77	1153.2	243.69	537.31	876.37	503.53	449.35	765.61	50.564	418.5	1594.8	177.81	432.2	874.03	-17.34	458.75	190.23	173.82	441.62	278.37	97.932	600.57	1624.8	199.48	545.39	37.368	226.21	325.44	1374	356.78	333.66	31.267	208.61	472.03	280.99	163.4	380.45	71.557	158.93	530.34	1382.8	244.34	414.68	93.184	241.81	350.79	1084.4	446.38	591.84	31.885	208.05	514.42	30.257	137.91	302.48	195.11	283.19	269.1	200.29	368.35	420.96	820.84	-64.693	370.04	1249.5	-4.0763	202.05	187.57	324.05	399.73	63.228	317.96
459	2.295	450.26	979.72	551.91	421.92	1239.6	499.69	468.33	1423.4	406.8	395.4	986.76	-52.056	425.74	1604.1	317.07	479.81	954.43	395.96	400.84	1463	257.17	550.78	687.38	419.68	517.79	571.56	426.21	379.8	1115.2	536.8	312.21	1129.6	66.547	530.97	380.94	331.52	399.29	240.84	329.64	472.11	852.8	540.86	484.39	659.34	435.58	535.83	477.94	417.4	451.05	748.94	438.51	437.39	1443.4	81.061	451.85	317.39	404.65	376.95	74.421	289.09	528.49	813.72	544.37	353.72	81.86	370.07	467.07	311.21	332.76	329.01	1127.4	-10.37	526.23	673.29	91.399	460.51	579.1	73.263	456.72	667.56	57.359	365.48	869.59	-46.726	314.78	986.81	181.72	306.16	982.64	286.57	493.27	371.54	149.91	452.81	461.17	91.137	305.08	1153.5	243.21	537.97	873.42	503.92	453.97	765.79	50.445	424.96	1595.4	178.36	442.76	876.02	-17.706	458.92	190.26	173.31	441.75	278.36	97.453	607.08	1624.9	199.96	545.33	37.419	226.12	331.63	1374.2	356.4	334.02	30.139	209.63	472.76	280.94	162.94	380.33	71.676	158.7	536.75	1383.2	244.44	414.73	93.372	241.57	354.37	1084.9	445.14	591.79	31.893	208.03	514.3	30.144	137.79	319.32	191.92	282.4	285.79	196.35	368.13	432.53	822.66	-65.348	377.3	1250.1	-4.726	219.02	181.78	323.05	420	62.907	317.76
460	2.3	451.83	978.93	551.48	427.15	1239.2	499.02	474.38	1423.2	406.88	404.87	987.72	-52.724	431.98	1604	317.38	486.95	954.55	395.43	407.34	1463	257.28	558.26	688.59	420.12	527.71	573.25	426.61	383.33	1115	535.71	319.52	1130	65.462	542.24	382.28	331.73	415.23	239.28	328.91	471.6	851.41	540.65	492.9	660.47	435.68	547.13	479.24	417.53	459.3	749.6	437.67	444.13	1444	81.125	466.04	316.82	404.21	397.16	72.755	289.04	527.53	811.7	544.69	373.71	79.813	369.65	481.23	311.34	332.43	336.52	1128	-11.529	529.74	672.29	91.206	462.9	579.04	72.782	460.29	667.69	57.103	376.65	870.35	-47.313	321.27	987.1	181.55	312.64	982.76	286.36	493.05	371.25	149.55	453.66	461.09	90.69	311.45	1153.5	242.71	538.36	870.93	504.18	457.99	765.61	50.545	431.25	1595.6	178.81	453.44	877.82	-18.202	459.06	190.23	173.07	442.1	278.34	97.1	613.29	1625.2	200.51	545.24	37.432	226.05	337.56	1374.3	355.81	333.8	30.888	209.03	473.61	280.81	162.56	380.32	71.724	158.62	543.13	1383.4	244.48	414.65	93.519	241.42	358.03	1085.4	443.92	591.77	31.869	207.99	514.29	30.127	137.73	336.37	188.65	281.77	302.83	192.28	367.48	444.26	824.39	-65.912	384.36	1251	-5.3926	236.31	175.59	322.16	440.5	62.469	317.51
461	2.305	453.56	978.03	550.84	431.91	1238.6	498.39	480.16	1423	407.05	414.28	988.84	-53.375	438.28	1603.8	318.01	494.05	954.61	394.71	413.65	1462.7	257.3	567.64	690.5	419.95	537.69	574.72	426.76	387.1	1114.9	534.74	326.86	1130.2	64.286	553.19	383.32	332.33	430.88	237.92	328.46	471.36	850.16	540.49	501.8	661.56	435.93	558.08	481.02	417.38	466.73	750.32	437.66	450.64	1444.5	81.296	480.28	316.49	403.68	417.81	71.12	288.71	526.76	809.31	545.05	393.89	77.797	369.11	495.2	311.32	332.12	344.31	1128.2	-12.539	533.45	671.38	91.109	465.11	578.88	72.431	463.29	667.67	57.185	387.79	871.2	-48.202	327.79	987.25	181.38	318.7	982.89	286.31	493.53	371.03	149.48	454.46	460.94	90.342	317.89	1153.3	242.38	538.65	868.64	504.29	462.9	765.51	50.385	437.57	1595.9	179.24	464.19	879.53	-18.761	459.27	190.18	173	442.61	278.27	96.815	619.51	1625.4	201.26	545.21	37.431	226.02	343.64	1374.1	355.47	333.45	31.519	208.49	474.21	280.91	162.21	380.32	71.811	158.59	549.33	1383.4	244.59	414.49	93.731	241.17	361.66	1085.7	442.74	591.8	31.817	207.97	514.29	30.108	137.68	353.69	185.22	281.14	320.12	187.75	366.76	456.02	826.16	-66.473	391.35	1251.8	-6.0463	253.96	169.22	321.29	461.39	62.22	317.49
462	2.31	454.95	977.05	550.44	436.89	1238.1	498.02	486.11	1422.6	407.28	423.92	989.76	-54.255	444.62	1603.6	318.62	500	954.42	394.11	419.9	1462.8	257.24	576.47	692.57	419.47	547.44	575.99	426.98	390.87	1114.8	533.67	334.67	1130.2	63.35	565.11	384.46	332.51	447.09	236.55	327.99	471.19	848.81	540.44	510.37	662.42	436.08	568.75	482.27	417.18	473.87	751.1	438.71	457.44	1444.8	81.463	494.41	316	403.42	438.45	69.561	288.79	525.81	807.19	545.3	414.21	75.742	368.81	509.15	311.27	332.02	351.68	1128.5	-13.72	537.09	670.23	91.008	467.37	578.61	72.01	466.92	667.32	56.716	398.81	871.74	-48.955	334.22	987.3	181.84	324.99	982.98	286.14	494.56	370.86	149.38	455.57	460.83	90.049	324.51	1153.3	242.06	538.68	865.91	504.68	468.03	765.4	50.271	443.99	1596.2	179.69	474.89	881.16	-19.301	460.77	190.02	172.62	443.34	278.23	96.743	626.02	1625.5	201.84	545.23	37.374	225.99	349.77	1373.7	354.92	333.28	31.767	208.32	474.66	280.85	162.06	380.37	71.883	158.6	555.69	1383.5	244.79	416.06	93.972	241.31	365.38	1085.8	441.52	591.89	31.67	207.96	514.28	30.074	137.66	371.48	181.71	280.79	337.14	183.2	366.17	467.77	827.8	-66.936	398.5	1252.1	-6.6759	271.64	163	320.39	482.08	61.899	317.44
463	2.315	456.38	975.85	550.11	441.92	1237.4	497.33	492.13	1422.2	407.49	433.18	990.7	-55.108	450.96	1603.1	319.1	505.77	954	393.7	426.34	1462.6	257.12	584.26	694.11	419.16	556.47	577.45	426.87	394.51	1114.5	532.76	342.62	1129.9	62.573	577.52	385.77	332.35	463.1	234.85	327.53	470.97	847.57	540.33	519.02	663.16	436.23	578.94	483.22	416.8	480.87	751.99	439.41	464.18	1444.9	81.384	508.37	315.48	403.25	459.54	67.481	288.04	524.84	805.05	545.61	434.43	73.602	368.57	522.97	311.09	331.97	359.23	1128.7	-14.855	540.61	669.21	91.197	469.83	578.36	71.798	470.41	667.06	56.675	409.7	872.46	-49.653	340.19	987.1	181.77	331.46	982.79	286.01	495.6	370.66	149.36	456.93	460.59	90.021	330.77	1153.3	241.71	538.85	863.48	504.95	473.11	765.15	50.152	450.18	1596	180.3	485.89	883.09	-19.979	460.25	189.94	173.02	444.14	278.13	96.776	632.39	1625.5	202.45	545.39	37.494	225.89	355.86	1373.6	354.68	333.33	31.844	208.47	475.07	280.57	162.07	380.44	71.971	158.62	562.17	1383.2	244.82	415.8	93.828	241.36	369.18	1086	440.39	591.97	31.524	207.97	514.17	29.954	137.63	388.25	178.38	280.39	354.42	178.59	365.54	479.44	829.43	-67.428	405.66	1252.6	-7.2021	289.62	156.42	319.9	503.17	62.264	317.95
